<svg width="36" height="36" viewBox="0 0 36 36" fill="none" xmlns="http://www.w3.org/2000/svg">
<path fill-rule="evenodd" clip-rule="evenodd" d="M15 6C14.1716 6 13.5 6.67157 13.5 7.5V22.5C13.5 23.3284 14.1716 24 15 24H27C27.8284 24 28.5 23.3284 28.5 22.5V12.6213L21.8787 6H15ZM10.5 7.5C10.5 5.01472 12.5147 3 15 3H21.8787C22.6743 3 23.4374 3.31607 24 3.87868L30.6213 10.5C31.1839 11.0626 31.5 11.8257 31.5 12.6213V22.5C31.5 24.9853 29.4853 27 27 27H25.5V28.5C25.5 30.9853 23.4853 33 21 33H9C6.51472 33 4.5 30.9853 4.5 28.5V13.5C4.5 11.0147 6.51472 9 9 9H10.5V7.5ZM10.5 12H9C8.17157 12 7.5 12.6716 7.5 13.5V28.5C7.5 29.3284 8.17157 30 9 30H21C21.8284 30 22.5 29.3284 22.5 28.5V27H15C12.5147 27 10.5 24.9853 10.5 22.5V12Z" fill="white"/>
</svg>
