<svg width="36" height="36" viewBox="0 0 36 36" fill="none" xmlns="http://www.w3.org/2000/svg">
<path d="M23.625 19.5C23.625 19.2016 23.5065 18.9155 23.2955 18.7045C23.0845 18.4935 22.7984 18.375 22.5 18.375H13.5C13.2016 18.375 12.9155 18.4935 12.7045 18.7045C12.4935 18.9155 12.375 19.2016 12.375 19.5C12.375 19.7984 12.4935 20.0845 12.7045 20.2955C12.9155 20.5065 13.2016 20.625 13.5 20.625H22.5C22.7984 20.625 23.0845 20.5065 23.2955 20.2955C23.5065 20.0845 23.625 19.7984 23.625 19.5ZM23.625 25.5C23.625 25.2016 23.5065 24.9155 23.2955 24.7045C23.0845 24.4935 22.7984 24.375 22.5 24.375H13.5C13.2016 24.375 12.9155 24.4935 12.7045 24.7045C12.4935 24.9155 12.375 25.2016 12.375 25.5C12.375 25.7984 12.4935 26.0845 12.7045 26.2955C12.9155 26.5065 13.2016 26.625 13.5 26.625H22.5C22.7984 26.625 23.0845 26.5065 23.2955 26.2955C23.5065 26.0845 23.625 25.7984 23.625 25.5Z" fill="white"/>
<path fill-rule="evenodd" clip-rule="evenodd" d="M10.5 3.375C9.40598 3.375 8.35677 3.8096 7.58318 4.58318C6.8096 5.35677 6.375 6.40598 6.375 7.5V28.5C6.375 29.594 6.8096 30.6432 7.58318 31.4168C8.35677 32.1904 9.40598 32.625 10.5 32.625H25.5C26.594 32.625 27.6432 32.1904 28.4168 31.4168C29.1904 30.6432 29.625 29.594 29.625 28.5V11.952C29.625 11.3805 29.439 10.8255 29.094 10.3695L24.597 4.4175C24.3523 4.09367 24.0359 3.831 23.6725 3.65011C23.3092 3.46923 22.9089 3.37505 22.503 3.375H10.5ZM8.625 7.5C8.625 6.465 9.465 5.625 10.5 5.625H21.375V12.2205C21.375 12.8415 21.879 13.3455 22.5 13.3455H27.375V28.5C27.375 29.535 26.535 30.375 25.5 30.375H10.5C9.465 30.375 8.625 29.535 8.625 28.5V7.5Z" fill="white"/>
</svg>
