<svg width="36" height="36" viewBox="0 0 36 36" fill="none" xmlns="http://www.w3.org/2000/svg">
<path fill-rule="evenodd" clip-rule="evenodd" d="M15.1469 3.92636C16.045 1.16256 19.955 1.16257 20.8531 3.92636L23.1314 10.9372L30.5032 10.9375C33.4092 10.9376 34.6175 14.6563 32.2665 16.3645L26.3028 20.6977L28.5805 27.7087C29.4784 30.4726 26.3151 32.7709 23.964 31.0628L18 26.73L12.036 31.0628C9.68486 32.7709 6.52159 30.4726 7.41951 27.7087L9.69723 20.6977L3.73353 16.3645C1.38254 14.6563 2.59081 10.9376 5.49686 10.9375L12.8686 10.9372L15.1469 3.92636ZM18 4.85351L15.7217 11.8644C15.3201 13.1004 14.1683 13.9372 12.8687 13.9372L5.49698 13.9375L11.4607 18.2707C12.512 19.0347 12.952 20.3887 12.5504 21.6247L10.2727 28.6357L16.2367 24.3029C17.2882 23.5391 18.7118 23.5391 19.7633 24.3029L25.7273 28.6357L23.4496 21.6247C23.048 20.3887 23.488 19.0347 24.5393 18.2707L30.503 13.9375L23.1313 13.9372C21.8317 13.9372 20.6799 13.1003 20.2783 11.8644L18 4.85351Z" fill="white"/>
</svg>
