<svg width="36" height="36" viewBox="0 0 36 36" fill="none" xmlns="http://www.w3.org/2000/svg">
<path fill-rule="evenodd" clip-rule="evenodd" d="M14.0293 6.12209C15.0399 1.9593 20.9601 1.95931 21.9707 6.12209C22.1442 6.83684 22.9631 7.17604 23.5912 6.79333C27.2494 4.56439 31.4356 8.75064 29.2067 12.4088C28.824 13.0369 29.1632 13.8558 29.8779 14.0293C34.0407 15.0399 34.0407 20.9601 29.8779 21.9707C29.1632 22.1442 28.824 22.9631 29.2067 23.5912C31.4356 27.2494 27.2494 31.4356 23.5912 29.2067C22.9631 28.824 22.1442 29.1632 21.9707 29.8779C20.9601 34.0407 15.0399 34.0407 14.0293 29.8779C13.8558 29.1632 13.0369 28.824 12.4088 29.2067C8.75064 31.4356 4.56439 27.2494 6.79333 23.5912C7.17604 22.9631 6.83684 22.1442 6.12209 21.9707C1.95931 20.9601 1.9593 15.0399 6.12209 14.0293C6.83684 13.8558 7.17604 13.0369 6.79333 12.4088C4.56439 8.75064 8.75064 4.56439 12.4088 6.79333C13.0369 7.17604 13.8558 6.83684 14.0293 6.12209ZM19.0554 6.82984C18.7868 5.72339 17.2132 5.72339 16.9446 6.82984C16.2918 9.51895 13.2109 10.7951 10.8478 9.35522C9.87547 8.76278 8.76278 9.87547 9.35522 10.8478C10.7951 13.2109 9.51895 16.2918 6.82984 16.9446C5.72339 17.2132 5.72339 18.7868 6.82984 19.0554C9.51895 19.7082 10.7951 22.7891 9.35522 25.1522C8.76278 26.1245 9.87547 27.2372 10.8478 26.6448C13.2109 25.2049 16.2918 26.4811 16.9446 29.1702C17.2132 30.2766 18.7868 30.2766 19.0554 29.1702C19.7082 26.4811 22.7891 25.2049 25.1522 26.6448C26.1245 27.2372 27.2372 26.1245 26.6448 25.1522C25.2049 22.7891 26.4811 19.7082 29.1702 19.0554C30.2766 18.7868 30.2766 17.2132 29.1702 16.9446C26.4811 16.2918 25.2049 13.2109 26.6448 10.8478C27.2372 9.87547 26.1245 8.76278 25.1522 9.35522C22.7891 10.7951 19.7082 9.51895 19.0554 6.82984ZM18 15C16.3431 15 15 16.3431 15 18C15 19.6569 16.3431 21 18 21C19.6569 21 21 19.6569 21 18C21 16.3431 19.6569 15 18 15ZM12 18C12 14.6863 14.6863 12 18 12C21.3137 12 24 14.6863 24 18C24 21.3137 21.3137 24 18 24C14.6863 24 12 21.3137 12 18Z" fill="white"/>
</svg>
