<?xml version="1.0" encoding="utf-8"?>
<!-- Generator: Adobe Illustrator 27.3.1, SVG Export Plug-In . SVG Version: 6.00 Build 0)  -->
<svg version="1.1" id="Layer_1" xmlns="http://www.w3.org/2000/svg" xmlns:xlink="http://www.w3.org/1999/xlink" x="0px" y="0px"
	 viewBox="0 0 16 16" style="enable-background:new 0 0 16 16;" xml:space="preserve">
<style type="text/css">
	.st0{fill:#2563EB;}
	.st1{opacity:0.8;fill:#FFFFFF;enable-background:new    ;}
	.st2{opacity:0.6;fill:#FFFFFF;enable-background:new    ;}
	.st3{opacity:0.9;fill:#FFFFFF;enable-background:new    ;}
</style>
<path class="st0" d="M3,0h10c1.7,0,3,1.3,3,3v10c0,1.7-1.3,3-3,3H3c-1.7,0-3-1.3-3-3V3C0,1.3,1.3,0,3,0z"/>
<path class="st1" d="M7,12.2h2c0.1,0,0.2,0.1,0.2,0.2v0.2C9.2,12.9,9.1,13,9,13H7c-0.1,0-0.2-0.1-0.2-0.2v-0.2
	C6.8,12.4,6.9,12.2,7,12.2z"/>
<path class="st2" d="M7.2,13.2h1.5c0.1,0,0.2,0.1,0.2,0.2l0,0c0,0.1-0.1,0.2-0.2,0.2H7.2c-0.1,0-0.2-0.1-0.2-0.2l0,0
	C7,13.4,7.1,13.2,7.2,13.2z"/>
<path class="st3" d="M8,3C5.8,3,4,4.8,4,7c0,1.6,1,2.9,2.5,3.5v1C6.5,11.8,6.7,12,7,12h2c0.3,0,0.5-0.2,0.5-0.5v-1
	C11,9.9,12,8.6,12,7C12,4.8,10.2,3,8,3z M8,8C7.2,8,6.5,7.3,6.5,6.5S7.2,5,8,5s1.5,0.7,1.5,1.5S8.8,8,8,8z"/>
</svg>
