<?xml version="1.0" encoding="utf-8"?>
<!-- Generator: Adobe Illustrator 27.3.1, SVG Export Plug-In . SVG Version: 6.00 Build 0)  -->
<svg version="1.1" id="Layer_1" xmlns="http://www.w3.org/2000/svg" xmlns:xlink="http://www.w3.org/1999/xlink" x="0px" y="0px"
	 viewBox="0 0 128 128" style="enable-background:new 0 0 128 128;" xml:space="preserve">
<style type="text/css">
	.st0{fill:#2563EB;}
	.st1{opacity:0.8;fill:#FFFFFF;enable-background:new    ;}
	.st2{opacity:0.6;fill:#FFFFFF;enable-background:new    ;}
	.st3{opacity:0.9;fill:#FFFFFF;enable-background:new    ;}
</style>
<path class="st0" d="M24,0h80c13.3,0,24,10.7,24,24v80c0,13.3-10.7,24-24,24H24c-13.3,0-24-10.7-24-24V24C0,10.7,10.7,0,24,0z"/>
<path class="st1" d="M56,98h16c1.1,0,2,0.9,2,2v2c0,1.1-0.9,2-2,2H56c-1.1,0-2-0.9-2-2v-2C54,98.9,54.9,98,56,98z"/>
<path class="st2" d="M58,106h12c1.1,0,2,0.9,2,2l0,0c0,1.1-0.9,2-2,2H58c-1.1,0-2-0.9-2-2l0,0C56,106.9,56.9,106,58,106z"/>
<path class="st3" d="M64,24c-17.7,0-32,14.3-32,32c0,12.5,8,23,20,28v8c0,2.2,1.8,4,4,4h16c2.2,0,4-1.8,4-4v-8c12-5,20-15.5,20-28
	C96,38.3,81.7,24,64,24z M64,64c-6.6,0-12-5.4-12-12s5.4-12,12-12s12,5.4,12,12S70.6,64,64,64z"/>
</svg>
