<?xml version="1.0" encoding="utf-8"?>
<!-- Generator: Adobe Illustrator 27.3.1, SVG Export Plug-In . SVG Version: 6.00 Build 0)  -->
<svg version="1.1" id="Layer_1" xmlns="http://www.w3.org/2000/svg" xmlns:xlink="http://www.w3.org/1999/xlink" x="0px" y="0px"
	 viewBox="0 0 48 48" style="enable-background:new 0 0 48 48;" xml:space="preserve">
<style type="text/css">
	.st0{fill:#2563EB;}
	.st1{opacity:0.8;fill:#FFFFFF;enable-background:new    ;}
	.st2{opacity:0.6;fill:#FFFFFF;enable-background:new    ;}
	.st3{opacity:0.9;fill:#FFFFFF;enable-background:new    ;}
</style>
<g>
	<path class="st0" d="M9,0h30c5,0,9,4,9,9v30c0,5-4,9-9,9H9c-5,0-9-4-9-9V9C0,4,4,0,9,0z"/>
	<path class="st1" d="M21,36.7h6c0.4,0,0.7,0.3,0.7,0.7v0.7c0,0.4-0.3,0.7-0.7,0.7h-6c-0.4,0-0.7-0.3-0.7-0.7v-0.7
		C20.3,37.1,20.6,36.7,21,36.7z"/>
	<path class="st2" d="M21.8,39.7h4.5c0.4,0,0.7,0.3,0.7,0.7l0,0c0,0.4-0.3,0.7-0.7,0.7h-4.5c-0.4,0-0.7-0.3-0.7-0.7l0,0
		C21,40.1,21.3,39.7,21.8,39.7z"/>
	<path class="st3" d="M24,9c-6.6,0-12,5.4-12,12c0,4.7,3,8.6,7.5,10.5v3c0,0.8,0.7,1.5,1.5,1.5h6c0.8,0,1.5-0.7,1.5-1.5v-3
		C33,29.6,36,25.7,36,21C36,14.4,30.6,9,24,9z M24,24c-2.5,0-4.5-2-4.5-4.5s2-4.5,4.5-4.5s4.5,2,4.5,4.5S26.5,24,24,24z"/>
</g>
</svg>
